<?xml version="1.0" encoding="UTF-8" standalone="no"?>
<svg width="60px" height="59px" viewBox="0 0 60 59" version="1.1" xmlns="http://www.w3.org/2000/svg" xmlns:xlink="http://www.w3.org/1999/xlink" xmlns:sketch="http://www.bohemiancoding.com/sketch/ns">
    <!-- Generator: Sketch 3.3 (11970) - http://www.bohemiancoding.com/sketch -->
    <title>githsare</title>
    <desc>Created with Sketch.</desc>
    <defs></defs>
    <g id="Page-1" stroke="none" stroke-width="1" fill="none" fill-rule="evenodd" sketch:type="MSPage">
        <g id="githsare" sketch:type="MSLayerGroup">
            <g id="Group" sketch:type="MSShapeGroup">
                <path d="M57.8081633,39.3333333 C57.4389796,39.3333333 57.122449,39.5478229 56.967551,39.8575729 C55.472449,42.96675 53.2512245,44.9407917 50.7679592,44.9407917 C46.3683673,44.9407917 42.7885714,38.7457917 42.6367347,31.0045 C42.6367347,31.0045 42.52101,28.0529916 42.6832549,26.8271027 C42.8454998,25.6012138 43.8667889,23.5824348 43.8667889,23.5824348 C44.0498523,22.5582172 43.9806122,22.5097292 44.2004082,21.9811875 C45.5442857,19.5996771 14.4630612,19.5148646 15.7689796,21.8699479 C16.0034694,22.4286042 15.9758442,23.0514188 16.1638034,23.6684604 C16.1638034,23.6684604 17.0810677,26.1148976 17.2429045,27.343757 C17.3082417,27.8398756 17.3655509,28.3970205 17.4119101,29.0585683 C17.4803801,30.0356392 17.3730612,31.0106458 17.3730612,31.0106458 C17.3730612,31.0106458 13.6395918,44.9407917 9.24183673,44.9407917 C6.78612245,44.9407917 4.58632653,43.0091562 3.09428571,39.9583646 C3.05877551,39.8864583 3.02265306,39.8145521 2.9877551,39.7414167 C2.82061224,39.4955833 2.53897959,39.3333333 2.21938776,39.3333333 C1.70571429,39.3333333 1.28877551,39.7506354 1.28877551,40.2681146 C1.28877551,40.3732083 1.31020408,40.4709271 1.34142857,40.5643437 C3.02142857,46.1570521 5.77653061,47.8981667 7.69102041,48.2718333 C7.66346939,48.1175729 7.63469388,47.9620833 7.60897959,47.8016771 L7.57591837,47.5896458 C7.56979592,46.897625 7.92244898,46.3211458 8.4844898,46.1392292 C8.60204082,46.1005104 8.7244898,46.0802292 8.84816327,46.0802292 C9.44693878,46.0802292 10.0157143,46.5294896 10.2544898,47.1846354 C10.3083673,47.3585625 10.5422449,48.1722708 11.0265306,49.1752708 C11.1679592,49.1844896 11.3087755,49.1955521 11.4520408,49.1955521 C13.6469388,49.1955521 15.6985714,48.30625 17.4483673,46.7630312 C16.1497959,48.9349687 14.5187755,50.6226146 12.6832653,51.6575729 C13.6169388,52.6064896 14.8769388,53.1553125 16.2208163,53.1553125 C18.0740816,53.1553125 19.7608163,52.1105208 20.6167347,50.4941667 C21.7181633,48.2589271 22.3077551,44.5910937 22.3077551,44.5910937 C22.2477551,45.6678437 22.4093878,47.6935104 21.6061224,50.0731771 C20.7716327,52.3766354 18.6159184,53.8952708 16.2208163,53.8952708 C14.4563265,53.8952708 12.81,53.0827917 11.7281633,51.7005937 C11.6179592,51.5592396 11.5334694,51.4443125 11.4538776,51.3238542 C11.3167347,51.1419375 11.1887755,50.9551042 11.0681633,50.7676562 C10.9304082,50.5513229 10.825102,50.3737083 10.7265306,50.1997813 C10.6016327,49.9748438 10.5104082,49.8021458 10.4259184,49.6331354 C10.0340816,48.8403229 9.79469388,48.1710417 9.67836735,47.8158125 L9.57795918,47.487625 C9.43530612,47.0408229 9.03612245,46.7372187 8.71040816,46.8447708 C8.44653061,46.9295833 8.28795918,47.2706771 8.33387755,47.6547917 C8.39020408,48.0247708 8.44714286,48.3351354 8.50653061,48.638125 C8.57204082,48.9736875 8.64489796,49.2945 8.72020408,49.6085521 C8.74163265,49.6970521 8.76244898,49.7855521 8.78510204,49.8728229 C8.81632653,49.995125 8.84816327,50.1161979 8.88061224,50.2372708 C8.90632653,50.3288437 8.93265306,50.4210312 8.95897959,50.5126042 C8.99510204,50.6361354 9.03122449,50.7602812 9.06857143,50.8813542 C9.11816327,51.042375 9.16959184,51.2015521 9.22163265,51.3551979 C9.25346939,51.4492292 9.28591837,51.5389583 9.31897959,51.6293021 C9.3544898,51.7300937 9.39,51.8284271 9.42612245,51.9236875 C9.45979592,52.0115729 9.49285714,52.0988437 9.52653061,52.1836562 C9.56755102,52.2869062 9.60979592,52.3889271 9.65265306,52.4884896 C9.68265306,52.561625 9.71265306,52.6347604 9.74326531,52.7054375 C10.6555102,54.7821146 11.8089796,56.175375 12.955102,57.1083125 C13.1302041,57.2496667 13.3053061,57.3799583 13.4791837,57.5034896 C13.7008163,57.6565208 13.8679592,57.7640729 14.0332653,57.8624062 C14.2579592,57.9933125 14.4226531,58.0830417 14.5842857,58.1647812 C14.9467347,58.3460833 15.2663265,58.476375 15.5663265,58.5820833 C15.7542857,58.6466146 15.8895918,58.6890208 16.0193878,58.7265104 C16.2097959,58.7799792 16.3316327,58.8107083 16.4461224,58.8371354 C16.6138776,58.8740104 16.7271429,58.8961354 16.8306122,58.9133437 C17.3216327,58.9907812 17.5744898,58.9981562 17.6571429,58.9993854 L17.8714286,58.9901667 C20.3461224,58.9901667 26.3938776,57.8851458 29.8083673,47.8410104 L29.9344898,47.4790208 L30.06,47.8410104 C33.4732653,57.8851458 39.5222449,58.9901667 41.9957143,58.9901667 L42.2118367,59 C42.295102,58.9987708 42.5485714,58.9907812 42.9202041,58.9342396 C43.1442857,58.89675 43.257551,58.874625 43.3757143,58.8475833 C43.5410204,58.8094792 43.6653061,58.77875 43.7932653,58.7424896 C43.9836735,58.6890208 44.1214286,58.6447708 44.2646939,58.5962187 C44.7673469,58.4192187 45.2773469,58.1930521 45.8081633,57.8783854 C46.0108163,57.7579271 46.1865306,57.6454583 46.3634694,57.5231562 C46.5746939,57.3731979 46.7559184,57.2379896 46.9371429,57.0886458 C48.0832653,56.1514062 49.2367347,54.7513854 50.1446939,52.6654896 C50.2212245,52.4854167 50.2910204,52.3157917 50.3589796,52.1443229 C50.3846939,52.0810208 50.4085714,52.0177187 50.4318367,51.9544167 C50.4771429,51.8364167 50.5218367,51.7128854 50.5659184,51.5899687 C50.5922449,51.514375 50.6197959,51.4393958 50.6467347,51.3613437 C50.7,51.2033958 50.7520408,51.0411458 50.8034694,50.8745937 C50.8426531,50.7510625 50.8787755,50.6244583 50.9155102,50.496625 C50.937551,50.4204167 50.9583673,50.3472812 50.9797959,50.2698437 C51.0165306,50.1346354 51.0526531,50.0006562 51.0881633,49.8629896 C51.205102,49.3866875 51.2791837,49.0548125 51.3483673,48.7088021 C51.4138776,48.3843021 51.4763265,48.0511979 51.5308163,47.7033437 C51.5816327,47.2712917 51.422449,46.9295833 51.1579592,46.8453854 C50.8328571,46.7378333 50.4330612,47.0414375 50.2916327,47.4882396 L50.2095918,47.8164271 C50.1006122,48.0936042 49.9353061,48.5606875 49.6891837,49.1144271 C49.6144898,49.2791354 49.534898,49.4481458 49.4485714,49.6233021 C49.3493878,49.8236562 49.2581633,49.9938958 49.1632653,50.1665937 C49.0377551,50.3878437 48.9342857,50.5623854 48.8216327,50.7356979 C48.6771429,50.96125 48.5516327,51.145625 48.415102,51.3250833 C48.3440816,51.4338646 48.2693878,51.5389583 48.1916327,51.6415937 C47.102449,53.0643542 45.4346939,53.8971146 43.6493878,53.8971146 C41.2530612,53.8971146 39.0979592,52.3778646 38.2781633,50.1137396 C37.5642857,48.4635833 37.622449,45.6696875 37.5618367,44.5929375 C37.5618367,44.5929375 38.1526531,48.2613854 39.2522449,50.4960104 C40.1087755,52.1123646 41.7955102,53.1571562 43.65,53.1571562 C45.0336735,53.1571562 46.3297959,52.5776042 47.2708163,51.5746042 C45.5228571,50.5476354 43.9671429,48.9239062 42.7138776,46.8539896 C44.4404082,48.3412812 46.4522449,49.1973958 48.6036735,49.1973958 C48.6820408,49.1973958 48.7597959,49.1894062 48.8387755,49.1869479 C49.3273469,48.1790312 49.5630612,47.3604062 49.5661224,47.3475 C49.8544898,46.5319479 50.4226531,46.0820729 51.0208163,46.0820729 C51.1457143,46.0820729 51.267551,46.1017396 51.3863265,46.1410729 C51.9489796,46.3229896 52.2997959,46.8994687 52.2802041,47.5742812 L52.2606122,47.8035208 C52.23,47.9965 52.1963265,48.1814896 52.1620408,48.3689375 C55.2795918,47.6431146 57.7677551,44.1842396 58.6726531,40.6718958 C58.7216327,40.5502083 58.7522449,40.4205312 58.7522449,40.28225 C58.7522449,39.7573958 58.3291837,39.3333333 57.8081633,39.3333333 Z" id="Shape" fill="#333333"></path>
                <g id="Oval-3-+-Oval-2" transform="translate(14.081633, 0.000000)">
                    <ellipse id="Oval-3" fill="#333333" cx="15.9183673" cy="15.9791667" rx="15.9183673" ry="15.9791667"></ellipse>
                    <path d="M15.9183673,30.1145833 C23.6954383,30.1145833 30,23.7859417 30,15.9791667 C30,8.17239161 23.6954383,1.84375 15.9183673,1.84375 C8.14129638,1.84375 1.83673469,8.17239161 1.83673469,15.9791667 C1.83673469,23.7859417 8.14129638,30.1145833 15.9183673,30.1145833 Z M17.0829355,20.7658913 L17.0829355,17.676395 C17.0829355,17.676395 10.9988443,16.1448498 7.98279905,20.7658913 C7.98279905,15.6695427 12.0648603,11.5238083 17.0829355,11.5238083 L17.0829355,8.43431195 L23.1670267,14.6133046 L17.0829355,20.7658913 Z" id="Oval-2" fill="#FFFFFF"></path>
                </g>
                <path d="M59.5940816,50.0184792 C59.6418367,49.9324375 59.6718367,49.8353333 59.6718367,49.7302396 C59.6718367,49.4002083 59.4055102,49.1334792 59.0773469,49.1334792 C58.8722449,49.1334792 58.6891837,49.2379583 58.5832653,49.39775 L58.5832653,49.3965208 C56.6057143,51.5395729 54.1989796,52.8031563 51.5969388,52.8031563 C51.362449,52.8031563 51.1328571,52.79025 50.9026531,52.7687396 C50.0736735,54.7427813 49.0353061,56.1618542 47.9638776,57.1753021 C48.1757143,57.1851354 48.3887755,57.1968125 48.6018367,57.1968125 C53.7318367,57.1968125 58.08,54.1908854 59.6063265,50.0264688 L59.5946939,50.0178646 L59.5940816,50.0178646 L59.5940816,50.0184792 Z" id="Shape" fill="#333333"></path>
                <path d="M8.97367347,52.7841042 C8.82,52.7933229 8.66632653,52.8031562 8.51081633,52.8031562 C5.85857143,52.8031562 3.40836735,51.4904062 1.41122449,49.2711458 C1.30408163,49.1162708 1.12591837,49.0154792 0.923877551,49.0154792 C0.595714286,49.0154792 0.32877551,49.2828229 0.32877551,49.6122396 C0.32877551,49.7081146 0.353877551,49.7966146 0.393061224,49.8777396 C0.393061224,49.8765104 0.39244898,49.8765104 0.39244898,49.8765104 C1.86918367,54.1189792 6.26081633,57.1974271 11.4538776,57.1974271 C11.6081633,57.1974271 11.7612245,57.1875937 11.914898,57.1832917 C10.8422449,56.1704583 9.80265306,54.7550729 8.97367347,52.7841042 L8.97367347,52.7841042 Z" id="Shape" fill="#333333"></path>
                <path d="M51.4910204,44.139375 C51.4910204,44.139375 56.4679592,42.4898333 55.0120408,34.9906875 L55.0120408,34.9863854 C55.0114286,34.979625 55.0102041,34.9716354 55.0089796,34.9636458 L55.0046939,34.9624167 C54.9214286,34.6151771 54.6116327,34.3570521 54.2406122,34.3570521 C53.8046939,34.3570521 53.4526531,34.7110521 53.4526531,35.14925 C53.4526531,35.1652292 53.4569388,35.1805937 53.457551,35.1971875 C53.4569388,35.1971875 53.4557143,35.1971875 53.4538776,35.1984167 C53.4538776,35.1984167 52.5955102,44.139375 45.2289796,39.8846146 C45.2295918,39.8846146 47.3779592,44.6943437 51.4910204,44.139375 L51.4910204,44.139375 Z" id="Path" fill="#333333"></path>
                <path d="M13.4738597,34.4357187 C13.3832475,34.0602083 13.0734516,33.8020833 12.7024312,33.8020833 C12.2665128,33.8020833 11.914472,34.1560833 11.914472,34.5942812 C11.914472,34.6102604 11.9187577,34.625625 11.9193699,34.6422187 C11.9156965,34.6434479 11.0573291,43.5844063 3.6907985,39.3296458 C3.69141074,39.3296458 6.5058416,45.5088755 9.53821793,44.0475896 C9.53821793,44.0475896 14.9297781,41.9348646 13.4738597,34.4357187 Z" id="Path-Copy" fill="#333333" transform="translate(8.707072, 39.036638) scale(-1, 1) translate(-8.707072, -39.036638) "></path>
            </g>
        </g>
    </g>
</svg>